<svg width="1477" height="240" viewBox="0 0 1477 240" fill="none" xmlns="http://www.w3.org/2000/svg">
<g clip-path="url(#clip0_2_2)">
<rect width="1477" height="240" fill="white"/>
<path d="M266.32 94.336C266.32 90.6667 267.387 87.7653 269.52 85.632C271.653 83.4987 274.555 82.432 278.224 82.432H320.464C321.061 83.3707 321.573 84.608 322 86.144C322.512 87.68 322.768 89.3013 322.768 91.008C322.768 94.2507 322.043 96.5547 320.592 97.92C319.227 99.2853 317.392 99.968 315.088 99.968H288.08V111.872H316.88C317.477 112.811 317.989 114.048 318.416 115.584C318.928 117.035 319.184 118.613 319.184 120.32C319.184 123.563 318.501 125.867 317.136 127.232C315.771 128.597 313.936 129.28 311.632 129.28H288.08V142.72H320.976C321.573 143.659 322.085 144.896 322.512 146.432C323.024 147.968 323.28 149.589 323.28 151.296C323.28 154.539 322.555 156.885 321.104 158.336C319.739 159.701 317.904 160.384 315.6 160.384H278.224C274.555 160.384 271.653 159.317 269.52 157.184C267.387 155.051 266.32 152.149 266.32 148.48V94.336ZM405.181 131.328C405.181 135.936 404.37 140.16 402.749 144C401.213 147.755 398.952 150.997 395.965 153.728C392.978 156.373 389.352 158.421 385.085 159.872C380.818 161.323 375.997 162.048 370.621 162.048C365.245 162.048 360.424 161.323 356.157 159.872C351.89 158.421 348.264 156.373 345.277 153.728C342.29 150.997 339.986 147.755 338.365 144C336.829 140.16 336.061 135.936 336.061 131.328V82.432C337 82.2613 338.493 82.048 340.541 81.792C342.589 81.4507 344.552 81.28 346.429 81.28C348.392 81.28 350.098 81.4507 351.549 81.792C353.085 82.048 354.365 82.56 355.389 83.328C356.413 84.096 357.181 85.1627 357.693 86.528C358.205 87.8933 358.461 89.6853 358.461 91.904V130.944C358.461 135.04 359.57 138.24 361.789 140.544C364.093 142.848 367.037 144 370.621 144C374.29 144 377.234 142.848 379.453 140.544C381.672 138.24 382.781 135.04 382.781 130.944V82.432C383.72 82.2613 385.213 82.048 387.261 81.792C389.309 81.4507 391.272 81.28 393.149 81.28C395.112 81.28 396.818 81.4507 398.269 81.792C399.805 82.048 401.085 82.56 402.109 83.328C403.133 84.096 403.901 85.1627 404.413 86.528C404.925 87.8933 405.181 89.6853 405.181 91.904V131.328ZM443.717 134.912V159.488C442.778 159.744 441.285 160 439.237 160.256C437.274 160.512 435.312 160.64 433.349 160.64C431.386 160.64 429.637 160.469 428.101 160.128C426.65 159.872 425.413 159.36 424.389 158.592C423.45 157.824 422.725 156.757 422.213 155.392C421.701 154.027 421.445 152.235 421.445 150.016V89.728C421.445 87.936 421.914 86.5707 422.853 85.632C423.877 84.608 425.242 83.7973 426.949 83.2C429.85 82.176 433.221 81.4507 437.061 81.024C440.901 80.512 444.997 80.256 449.349 80.256C461.125 80.256 470 82.7307 475.973 87.68C481.946 92.6293 484.933 99.328 484.933 107.776C484.933 113.067 483.568 117.589 480.837 121.344C478.106 125.099 474.864 128 471.109 130.048C474.181 134.229 477.21 138.155 480.197 141.824C483.184 145.493 485.53 148.821 487.237 151.808C486.384 154.795 484.805 157.099 482.501 158.72C480.282 160.256 477.765 161.024 474.949 161.024C473.072 161.024 471.45 160.811 470.085 160.384C468.72 159.957 467.525 159.36 466.501 158.592C465.477 157.824 464.538 156.885 463.685 155.776C462.832 154.667 462.021 153.472 461.253 152.192L450.501 134.912H443.717ZM451.781 117.888C455.024 117.888 457.584 117.077 459.461 115.456C461.338 113.749 462.277 111.275 462.277 108.032C462.277 104.789 461.21 102.357 459.077 100.736C457.029 99.0293 453.744 98.176 449.221 98.176C447.941 98.176 446.917 98.2187 446.149 98.304C445.381 98.3893 444.528 98.5173 443.589 98.688V117.888H451.781ZM499.445 94.336C499.445 90.6667 500.512 87.7653 502.645 85.632C504.778 83.4987 507.68 82.432 511.349 82.432H553.589C554.186 83.3707 554.698 84.608 555.125 86.144C555.637 87.68 555.893 89.3013 555.893 91.008C555.893 94.2507 555.168 96.5547 553.717 97.92C552.352 99.2853 550.517 99.968 548.213 99.968H521.205V111.872H550.005C550.602 112.811 551.114 114.048 551.541 115.584C552.053 117.035 552.309 118.613 552.309 120.32C552.309 123.563 551.626 125.867 550.261 127.232C548.896 128.597 547.061 129.28 544.757 129.28H521.205V142.72H554.101C554.698 143.659 555.21 144.896 555.637 146.432C556.149 147.968 556.405 149.589 556.405 151.296C556.405 154.539 555.68 156.885 554.229 158.336C552.864 159.701 551.029 160.384 548.725 160.384H511.349C507.68 160.384 504.778 159.317 502.645 157.184C500.512 155.051 499.445 152.149 499.445 148.48V94.336ZM592.098 131.2V159.488C591.159 159.744 589.666 160 587.618 160.256C585.57 160.512 583.565 160.64 581.602 160.64C579.639 160.64 577.89 160.469 576.354 160.128C574.903 159.872 573.666 159.36 572.642 158.592C571.618 157.824 570.85 156.757 570.338 155.392C569.826 154.027 569.57 152.235 569.57 150.016V82.432C570.509 82.2613 572.002 82.048 574.05 81.792C576.098 81.4507 578.061 81.28 579.938 81.28C581.901 81.28 583.607 81.4507 585.058 81.792C586.594 82.048 587.874 82.56 588.898 83.328C589.922 84.096 590.69 85.1627 591.202 86.528C591.714 87.8933 591.97 89.6853 591.97 91.904V112.256L618.594 81.664C624.397 81.664 628.535 82.7733 631.01 84.992C633.57 87.1253 634.85 89.6853 634.85 92.672C634.85 94.8907 634.295 96.9813 633.186 98.944C632.077 100.907 630.285 103.125 627.81 105.6L611.81 121.6C613.943 123.989 616.162 126.464 618.466 129.024C620.855 131.584 623.159 134.101 625.378 136.576C627.682 138.965 629.858 141.269 631.906 143.488C634.039 145.707 635.874 147.627 637.41 149.248C637.41 151.125 637.069 152.789 636.386 154.24C635.703 155.691 634.765 156.928 633.57 157.952C632.461 158.976 631.181 159.744 629.73 160.256C628.279 160.768 626.743 161.024 625.122 161.024C621.623 161.024 618.765 160.171 616.546 158.464C614.327 156.672 612.194 154.581 610.146 152.192L592.098 131.2ZM666.332 84.736C667.783 83.8827 669.959 83.072 672.86 82.304C675.847 81.536 678.833 81.152 681.82 81.152C686.087 81.152 689.841 81.792 693.084 83.072C696.412 84.2667 698.545 86.1867 699.484 88.832C701.02 93.2693 702.684 98.432 704.476 104.32C706.268 110.208 708.06 116.309 709.852 122.624C711.644 128.853 713.393 135.04 715.1 141.184C716.807 147.243 718.3 152.619 719.58 157.312C718.556 158.507 717.02 159.445 714.972 160.128C712.924 160.896 710.492 161.28 707.676 161.28C705.628 161.28 703.879 161.109 702.428 160.768C701.063 160.427 699.911 159.915 698.972 159.232C698.119 158.549 697.393 157.653 696.796 156.544C696.284 155.435 695.815 154.155 695.388 152.704L693.084 143.872H669.916C669.233 146.432 668.551 149.077 667.868 151.808C667.185 154.539 666.503 157.184 665.82 159.744C664.625 160.171 663.345 160.512 661.98 160.768C660.7 161.109 659.121 161.28 657.244 161.28C652.892 161.28 649.649 160.555 647.516 159.104C645.468 157.568 644.444 155.477 644.444 152.832C644.444 151.637 644.615 150.443 644.956 149.248C645.297 148.053 645.681 146.645 646.108 145.024C646.705 142.72 647.516 139.861 648.54 136.448C649.649 133.035 650.844 129.365 652.124 125.44C653.404 121.429 654.769 117.333 656.22 113.152C657.671 108.971 659.036 105.045 660.316 101.376C661.596 97.6213 662.748 94.2933 663.772 91.392C664.881 88.4907 665.735 86.272 666.332 84.736ZM681.692 101.248C680.497 104.832 679.132 108.843 677.596 113.28C676.145 117.632 674.823 122.069 673.628 126.592H689.5C688.305 121.984 687.068 117.504 685.788 113.152C684.593 108.715 683.484 104.747 682.46 101.248H681.692ZM777.711 129.152C773.956 127.872 770.543 126.592 767.471 125.312C764.399 123.947 761.754 122.325 759.535 120.448C757.316 118.571 755.567 116.352 754.287 113.792C753.092 111.147 752.495 107.947 752.495 104.192C752.495 96.9387 755.268 91.136 760.815 86.784C766.447 82.432 774.298 80.256 784.367 80.256C788.036 80.256 791.45 80.512 794.607 81.024C797.764 81.536 800.452 82.3467 802.671 83.456C804.975 84.48 806.767 85.8453 808.047 87.552C809.327 89.1733 809.967 91.0933 809.967 93.312C809.967 95.5307 809.455 97.4507 808.431 99.072C807.407 100.608 806.17 101.931 804.719 103.04C802.842 101.845 800.324 100.821 797.167 99.968C794.01 99.0293 790.554 98.56 786.799 98.56C782.959 98.56 780.143 99.1147 778.351 100.224C776.559 101.248 775.663 102.571 775.663 104.192C775.663 105.472 776.218 106.539 777.327 107.392C778.436 108.16 780.1 108.885 782.319 109.568L789.103 111.744C797.124 114.304 803.268 117.589 807.535 121.6C811.887 125.525 814.063 130.901 814.063 137.728C814.063 144.981 811.204 150.869 805.487 155.392C799.77 159.829 791.364 162.048 780.271 162.048C776.346 162.048 772.676 161.707 769.263 161.024C765.935 160.427 762.991 159.531 760.431 158.336C757.956 157.056 755.994 155.52 754.543 153.728C753.178 151.851 752.495 149.717 752.495 147.328C752.495 144.853 753.22 142.763 754.671 141.056C756.122 139.264 757.7 137.899 759.407 136.96C761.796 138.837 764.698 140.459 768.111 141.824C771.61 143.189 775.407 143.872 779.503 143.872C783.684 143.872 786.628 143.232 788.335 141.952C790.042 140.672 790.895 139.179 790.895 137.472C790.895 135.765 790.212 134.485 788.847 133.632C787.482 132.693 785.562 131.797 783.087 130.944L777.711 129.152ZM822.855 121.088C822.855 114.432 823.879 108.544 825.927 103.424C828.06 98.304 830.919 94.0373 834.503 90.624C838.172 87.1253 842.439 84.48 847.303 82.688C852.252 80.896 857.586 80 863.303 80C869.02 80 874.311 80.896 879.175 82.688C884.124 84.48 888.434 87.1253 892.103 90.624C895.772 94.0373 898.631 98.304 900.679 103.424C902.812 108.544 903.879 114.432 903.879 121.088C903.879 127.744 902.855 133.675 900.807 138.88C898.759 144 895.9 148.309 892.231 151.808C888.647 155.221 884.38 157.824 879.431 159.616C874.482 161.408 869.106 162.304 863.303 162.304C857.5 162.304 852.124 161.408 847.175 159.616C842.226 157.739 837.959 155.051 834.375 151.552C830.791 148.053 827.975 143.744 825.927 138.624C823.879 133.504 822.855 127.659 822.855 121.088ZM845.895 121.088C845.895 128.853 847.474 134.656 850.631 138.496C853.788 142.336 858.012 144.256 863.303 144.256C868.679 144.256 872.946 142.336 876.103 138.496C879.26 134.656 880.839 128.853 880.839 121.088C880.839 113.408 879.26 107.648 876.103 103.808C873.031 99.968 868.807 98.048 863.431 98.048C858.14 98.048 853.874 99.968 850.631 103.808C847.474 107.563 845.895 113.323 845.895 121.088ZM928.599 160.384C924.93 160.384 922.028 159.317 919.895 157.184C917.762 155.051 916.695 152.149 916.695 148.48V82.304C917.634 82.1333 919.127 81.92 921.175 81.664C923.223 81.3227 925.186 81.152 927.063 81.152C929.026 81.152 930.732 81.3227 932.183 81.664C933.719 81.92 934.999 82.432 936.023 83.2C937.047 83.968 937.815 85.0347 938.327 86.4C938.839 87.7653 939.095 89.5573 939.095 91.776V142.336H968.407C969.004 143.275 969.559 144.555 970.071 146.176C970.583 147.712 970.839 149.333 970.839 151.04C970.839 154.453 970.114 156.885 968.663 158.336C967.212 159.701 965.292 160.384 962.903 160.384H928.599ZM1049.81 131.328C1049.81 135.936 1049 140.16 1047.37 144C1045.84 147.755 1043.58 150.997 1040.59 153.728C1037.6 156.373 1033.98 158.421 1029.71 159.872C1025.44 161.323 1020.62 162.048 1015.25 162.048C1009.87 162.048 1005.05 161.323 1000.78 159.872C996.515 158.421 992.889 156.373 989.902 153.728C986.915 150.997 984.611 147.755 982.99 144C981.454 140.16 980.686 135.936 980.686 131.328V82.432C981.625 82.2613 983.118 82.048 985.166 81.792C987.214 81.4507 989.177 81.28 991.054 81.28C993.017 81.28 994.723 81.4507 996.174 81.792C997.71 82.048 998.99 82.56 1000.01 83.328C1001.04 84.096 1001.81 85.1627 1002.32 86.528C1002.83 87.8933 1003.09 89.6853 1003.09 91.904V130.944C1003.09 135.04 1004.2 138.24 1006.41 140.544C1008.72 142.848 1011.66 144 1015.25 144C1018.92 144 1021.86 142.848 1024.08 140.544C1026.3 138.24 1027.41 135.04 1027.41 130.944V82.432C1028.34 82.2613 1029.84 82.048 1031.89 81.792C1033.93 81.4507 1035.9 81.28 1037.77 81.28C1039.74 81.28 1041.44 81.4507 1042.89 81.792C1044.43 82.048 1045.71 82.56 1046.73 83.328C1047.76 84.096 1048.53 85.1627 1049.04 86.528C1049.55 87.8933 1049.81 89.6853 1049.81 91.904V131.328ZM1062.49 100.352C1061.89 99.4133 1061.33 98.1333 1060.82 96.512C1060.31 94.8907 1060.05 93.184 1060.05 91.392C1060.05 88.064 1060.78 85.6747 1062.23 84.224C1063.77 82.7733 1065.73 82.048 1068.12 82.048H1123.93C1124.52 82.9867 1125.08 84.2667 1125.59 85.888C1126.1 87.5093 1126.36 89.216 1126.36 91.008C1126.36 94.336 1125.59 96.7253 1124.05 98.176C1122.6 99.6267 1120.68 100.352 1118.29 100.352H1104.09V159.488C1103.15 159.744 1101.65 160 1099.61 160.256C1097.64 160.512 1095.68 160.64 1093.72 160.64C1091.76 160.64 1090.01 160.469 1088.47 160.128C1087.02 159.872 1085.78 159.36 1084.76 158.592C1083.73 157.824 1082.97 156.757 1082.45 155.392C1081.94 154.027 1081.69 152.235 1081.69 150.016V100.352H1062.49ZM1159.6 159.488C1158.66 159.744 1157.16 160 1155.12 160.256C1153.15 160.512 1151.19 160.64 1149.23 160.64C1147.26 160.64 1145.52 160.469 1143.98 160.128C1142.53 159.872 1141.29 159.36 1140.27 158.592C1139.24 157.824 1138.48 156.757 1137.96 155.392C1137.45 154.027 1137.2 152.235 1137.2 150.016V82.432C1138.13 82.2613 1139.63 82.048 1141.68 81.792C1143.72 81.4507 1145.69 81.28 1147.56 81.28C1149.53 81.28 1151.23 81.4507 1152.68 81.792C1154.22 82.048 1155.5 82.56 1156.52 83.328C1157.55 84.096 1158.32 85.1627 1158.83 86.528C1159.34 87.8933 1159.6 89.6853 1159.6 91.904V159.488ZM1172.36 121.088C1172.36 114.432 1173.38 108.544 1175.43 103.424C1177.56 98.304 1180.42 94.0373 1184 90.624C1187.67 87.1253 1191.94 84.48 1196.8 82.688C1201.75 80.896 1207.09 80 1212.8 80C1218.52 80 1223.81 80.896 1228.68 82.688C1233.62 84.48 1237.93 87.1253 1241.6 90.624C1245.27 94.0373 1248.13 98.304 1250.18 103.424C1252.31 108.544 1253.38 114.432 1253.38 121.088C1253.38 127.744 1252.36 133.675 1250.31 138.88C1248.26 144 1245.4 148.309 1241.73 151.808C1238.15 155.221 1233.88 157.824 1228.93 159.616C1223.98 161.408 1218.61 162.304 1212.8 162.304C1207 162.304 1201.62 161.408 1196.68 159.616C1191.73 157.739 1187.46 155.051 1183.88 151.552C1180.29 148.053 1177.48 143.744 1175.43 138.624C1173.38 133.504 1172.36 127.659 1172.36 121.088ZM1195.4 121.088C1195.4 128.853 1196.97 134.656 1200.13 138.496C1203.29 142.336 1207.51 144.256 1212.8 144.256C1218.18 144.256 1222.45 142.336 1225.6 138.496C1228.76 134.656 1230.34 128.853 1230.34 121.088C1230.34 113.408 1228.76 107.648 1225.6 103.808C1222.53 99.968 1218.31 98.048 1212.93 98.048C1207.64 98.048 1203.37 99.968 1200.13 103.808C1196.97 107.563 1195.4 113.323 1195.4 121.088ZM1336.47 157.312C1335.27 158.507 1333.52 159.403 1331.22 160C1329 160.683 1326.31 161.024 1323.16 161.024C1320 161.024 1317.01 160.555 1314.2 159.616C1311.38 158.677 1309.08 156.416 1307.28 152.832L1294.61 126.976C1293.33 124.331 1292.18 121.856 1291.16 119.552C1290.13 117.163 1289.02 114.432 1287.83 111.36L1287.06 111.488C1287.4 116.096 1287.57 120.789 1287.57 125.568C1287.66 130.347 1287.7 135.04 1287.7 139.648V159.488C1286.76 159.744 1285.31 160 1283.35 160.256C1281.47 160.512 1279.59 160.64 1277.72 160.64C1275.84 160.64 1274.17 160.512 1272.72 160.256C1271.27 160 1270.08 159.488 1269.14 158.72C1268.2 157.952 1267.48 156.928 1266.96 155.648C1266.45 154.283 1266.2 152.533 1266.2 150.4V86.4C1267.39 84.6933 1269.22 83.4133 1271.7 82.56C1274.17 81.7067 1276.82 81.28 1279.64 81.28C1282.79 81.28 1285.78 81.792 1288.6 82.816C1291.5 83.7547 1293.8 85.9733 1295.51 89.472L1308.31 115.328C1309.59 117.973 1310.74 120.491 1311.76 122.88C1312.79 125.184 1313.9 127.872 1315.09 130.944L1315.73 130.816C1315.39 126.208 1315.18 121.6 1315.09 116.992C1315.01 112.384 1314.96 107.776 1314.96 103.168V82.432C1315.9 82.176 1317.31 81.92 1319.19 81.664C1321.15 81.408 1323.07 81.28 1324.95 81.28C1328.7 81.28 1331.56 81.9627 1333.52 83.328C1335.49 84.608 1336.47 87.3387 1336.47 91.52V157.312ZM1375.09 129.152C1371.33 127.872 1367.92 126.592 1364.85 125.312C1361.77 123.947 1359.13 122.325 1356.91 120.448C1354.69 118.571 1352.94 116.352 1351.66 113.792C1350.47 111.147 1349.87 107.947 1349.87 104.192C1349.87 96.9387 1352.64 91.136 1358.19 86.784C1363.82 82.432 1371.67 80.256 1381.74 80.256C1385.41 80.256 1388.82 80.512 1391.98 81.024C1395.14 81.536 1397.83 82.3467 1400.05 83.456C1402.35 84.48 1404.14 85.8453 1405.42 87.552C1406.7 89.1733 1407.34 91.0933 1407.34 93.312C1407.34 95.5307 1406.83 97.4507 1405.81 99.072C1404.78 100.608 1403.54 101.931 1402.09 103.04C1400.22 101.845 1397.7 100.821 1394.54 99.968C1391.38 99.0293 1387.93 98.56 1384.17 98.56C1380.33 98.56 1377.52 99.1147 1375.73 100.224C1373.93 101.248 1373.04 102.571 1373.04 104.192C1373.04 105.472 1373.59 106.539 1374.7 107.392C1375.81 108.16 1377.48 108.885 1379.69 109.568L1386.48 111.744C1394.5 114.304 1400.64 117.589 1404.91 121.6C1409.26 125.525 1411.44 130.901 1411.44 137.728C1411.44 144.981 1408.58 150.869 1402.86 155.392C1397.14 159.829 1388.74 162.048 1377.65 162.048C1373.72 162.048 1370.05 161.707 1366.64 161.024C1363.31 160.427 1360.37 159.531 1357.81 158.336C1355.33 157.056 1353.37 155.52 1351.92 153.728C1350.55 151.851 1349.87 149.717 1349.87 147.328C1349.87 144.853 1350.6 142.763 1352.05 141.056C1353.5 139.264 1355.08 137.899 1356.78 136.96C1359.17 138.837 1362.07 140.459 1365.49 141.824C1368.98 143.189 1372.78 143.872 1376.88 143.872C1381.06 143.872 1384 143.232 1385.71 141.952C1387.42 140.672 1388.27 139.179 1388.27 137.472C1388.27 135.765 1387.59 134.485 1386.22 133.632C1384.86 132.693 1382.94 131.797 1380.46 130.944L1375.09 129.152Z" fill="#141414"/>
<path fill-rule="evenodd" clip-rule="evenodd" d="M86 56C69.4315 56 56 69.4315 56 86V184H154C170.569 184 184 170.569 184 154V56H86ZM119.688 138.984L118.632 137.64L102.696 138.216H93.48L93.288 132.84L93.384 129.192H102.024L113.16 129.48L114.312 115.464L113.256 114.12L103.272 114.408H93.768L93.96 105.672H103.848L119.112 106.248L120.36 92.232L119.304 90.888H74.76L75.72 134.76L74.76 153H118.536L119.688 138.984ZM168.266 93.096C162.314 90.856 156.298 89.736 150.217 89.736C145.225 89.736 140.777 90.664 136.874 92.52C132.969 94.376 129.93 96.936 127.754 100.2C125.577 103.4 124.49 107.016 124.49 111.048C124.49 114.568 125.322 117.544 126.985 119.976C128.65 122.344 130.602 124.232 132.842 125.64C135.146 126.984 138.057 128.424 141.577 129.96C144.65 131.304 146.857 132.456 148.202 133.416C149.609 134.312 150.314 135.432 150.314 136.776C150.314 137.672 149.898 138.44 149.066 139.08C148.298 139.656 147.018 139.944 145.225 139.944C142.986 139.944 140.169 139.304 136.777 138.024C133.449 136.68 130.314 134.888 127.369 132.648L125.45 133.8L122.665 150.504C129.833 152.936 136.682 154.152 143.21 154.152C148.458 154.152 153.066 153.224 157.034 151.368C161.001 149.512 164.042 147.016 166.154 143.88C168.329 140.68 169.417 137.128 169.417 133.224C169.417 129.704 168.553 126.76 166.826 124.392C165.098 121.96 163.081 120.072 160.777 118.728C158.473 117.32 155.529 115.816 151.945 114.216C148.874 112.808 146.665 111.688 145.322 110.856C144.042 109.96 143.402 108.904 143.402 107.688C143.402 106.728 143.818 105.96 144.65 105.384C145.546 104.808 146.73 104.52 148.202 104.52C149.801 104.52 151.913 105 154.538 105.96C157.161 106.92 159.818 108.232 162.506 109.896L165.193 108.744L168.266 93.096Z" fill="#141414"/>
</g>
<defs>
<clipPath id="clip0_2_2">
<rect width="1477" height="240" fill="white"/>
</clipPath>
</defs>
</svg>
