<svg width="1000" height="1000" viewBox="0 0 1000 1000" fill="none" xmlns="http://www.w3.org/2000/svg">
<path d="M485 94.9489C494.591 89.4113 506.409 89.4113 516 94.9489L750.437 230.301C760.028 235.839 765.937 246.073 765.937 257.148V527.852C765.937 538.927 760.028 549.161 750.437 554.699L516 690.051C506.409 695.589 494.591 695.589 485 690.051L250.563 554.699C240.972 549.161 235.063 538.927 235.063 527.852V257.148C235.063 246.073 240.972 235.839 250.563 230.301L485 94.9489Z" fill="#282828"/>
<path d="M152.301 815.4C153.767 814.733 156.034 814 159.101 813.2C162.301 812.267 165.501 811.8 168.701 811.8C174.301 811.8 178.967 812.667 182.701 814.4C186.434 816 188.701 818.4 189.501 821.6C190.967 827.067 192.301 832.2 193.501 837C194.834 841.667 196.101 846.2 197.301 850.6C198.501 854.867 199.634 859.133 200.701 863.4C201.901 867.667 203.034 872.133 204.101 876.8H205.101C206.301 868.667 207.367 860.933 208.301 853.6C209.234 846.133 210.101 838.867 210.901 831.8C211.701 824.6 212.501 817.533 213.301 810.6C214.101 803.533 214.901 796.4 215.701 789.2C220.634 786.4 225.901 785 231.501 785C236.434 785 240.701 786.067 244.301 788.2C247.901 790.333 249.701 793.933 249.701 799C249.701 801.933 249.367 806.133 248.701 811.6C248.167 816.933 247.367 822.933 246.301 829.6C245.367 836.267 244.234 843.267 242.901 850.6C241.567 857.933 240.167 864.933 238.701 871.6C237.234 878.267 235.701 884.333 234.101 889.8C232.634 895.133 231.234 899.267 229.901 902.2C227.901 904.067 224.634 905.6 220.101 906.8C215.567 908 210.901 908.6 206.101 908.6C199.834 908.6 194.501 907.8 190.101 906.2C185.834 904.467 183.234 902.067 182.301 899C180.567 893.667 178.701 887.333 176.701 880C174.701 872.667 172.567 864.6 170.301 855.8C168.434 864.467 166.501 872.933 164.501 881.2C162.501 889.467 160.701 896.467 159.101 902.2C157.101 904.067 154.101 905.6 150.101 906.8C146.101 908 141.701 908.6 136.901 908.6C130.901 908.6 125.434 907.8 120.501 906.2C115.701 904.467 112.567 902.067 111.101 899C109.901 896.6 108.567 893.067 107.101 888.4C105.767 883.6 104.367 878.2 102.901 872.2C101.434 866.067 99.9008 859.467 98.3008 852.4C96.8341 845.333 95.4341 838.267 94.1008 831.2C92.9008 824.133 91.7674 817.267 90.7008 810.6C89.6341 803.8 88.8341 797.6 88.3008 792C90.1674 790.267 92.7674 788.667 96.1008 787.2C99.4341 785.733 103.034 785 106.901 785C111.967 785 116.101 786.133 119.301 788.4C122.634 790.533 124.701 794.2 125.501 799.4C127.634 813 129.367 824.333 130.701 833.4C132.167 842.467 133.301 849.933 134.101 855.8C135.034 861.533 135.701 866 136.101 869.2C136.501 872.4 136.901 874.933 137.301 876.8H138.301C139.501 871.467 140.634 866.533 141.701 862C142.767 857.467 143.834 852.933 144.901 848.4C146.101 843.733 147.301 838.8 148.501 833.6C149.701 828.267 150.967 822.2 152.301 815.4ZM377.357 906.2C375.89 906.6 373.557 907 370.357 907.4C367.29 907.8 364.224 908 361.157 908C358.09 908 355.357 907.733 352.957 907.2C350.69 906.8 348.757 906 347.157 904.8C345.557 903.6 344.357 901.933 343.557 899.8C342.757 897.667 342.357 894.867 342.357 891.4V860.2H303.957V906.2C302.49 906.6 300.157 907 296.957 907.4C293.89 907.8 290.824 908 287.757 908C284.69 908 281.957 907.733 279.557 907.2C277.29 906.8 275.357 906 273.757 904.8C272.157 903.6 270.957 901.933 270.157 899.8C269.357 897.667 268.957 894.867 268.957 891.4V785.8C270.424 785.533 272.757 785.2 275.957 784.8C279.157 784.267 282.224 784 285.157 784C288.224 784 290.89 784.267 293.157 784.8C295.557 785.2 297.557 786 299.157 787.2C300.757 788.4 301.957 790.067 302.757 792.2C303.557 794.333 303.957 797.133 303.957 800.6V832.6H342.357V785.8C343.824 785.533 346.157 785.2 349.357 784.8C352.557 784.267 355.624 784 358.557 784C361.624 784 364.29 784.267 366.557 784.8C368.957 785.2 370.957 786 372.557 787.2C374.157 788.4 375.357 790.067 376.157 792.2C376.957 794.333 377.357 797.133 377.357 800.6V906.2ZM397.332 846.2C397.332 835.8 398.932 826.6 402.132 818.6C405.465 810.6 409.932 803.933 415.532 798.6C421.265 793.133 427.932 789 435.532 786.2C443.265 783.4 451.599 782 460.532 782C469.465 782 477.732 783.4 485.332 786.2C493.065 789 499.799 793.133 505.532 798.6C511.265 803.933 515.732 810.6 518.932 818.6C522.265 826.6 523.932 835.8 523.932 846.2C523.932 856.6 522.332 865.867 519.132 874C515.932 882 511.465 888.733 505.732 894.2C500.132 899.533 493.465 903.6 485.732 906.4C477.999 909.2 469.599 910.6 460.532 910.6C451.465 910.6 443.065 909.2 435.332 906.4C427.599 903.467 420.932 899.267 415.332 893.8C409.732 888.333 405.332 881.6 402.132 873.6C398.932 865.6 397.332 856.467 397.332 846.2ZM433.332 846.2C433.332 858.333 435.799 867.4 440.732 873.4C445.665 879.4 452.265 882.4 460.532 882.4C468.932 882.4 475.599 879.4 480.532 873.4C485.465 867.4 487.932 858.333 487.932 846.2C487.932 834.2 485.465 825.2 480.532 819.2C475.732 813.2 469.132 810.2 460.732 810.2C452.465 810.2 445.799 813.2 440.732 819.2C435.799 825.067 433.332 834.067 433.332 846.2ZM609.796 789.4C612.063 788.067 615.463 786.8 619.996 785.6C624.663 784.4 629.329 783.8 633.996 783.8C640.663 783.8 646.529 784.8 651.596 786.8C656.796 788.667 660.129 791.667 661.596 795.8C663.996 802.733 666.596 810.8 669.396 820C672.196 829.2 674.996 838.733 677.796 848.6C680.596 858.333 683.329 868 685.996 877.6C688.663 887.067 690.996 895.467 692.996 902.8C691.396 904.667 688.996 906.133 685.796 907.2C682.596 908.4 678.796 909 674.396 909C671.196 909 668.463 908.733 666.196 908.2C664.063 907.667 662.263 906.867 660.796 905.8C659.463 904.733 658.329 903.333 657.396 901.6C656.596 899.867 655.863 897.867 655.196 895.6L651.596 881.8H615.396C614.329 885.8 613.263 889.933 612.196 894.2C611.129 898.467 610.063 902.6 608.996 906.6C607.129 907.267 605.129 907.8 602.996 908.2C600.996 908.733 598.529 909 595.596 909C588.796 909 583.729 907.867 580.396 905.6C577.196 903.2 575.596 899.933 575.596 895.8C575.596 893.933 575.863 892.067 576.396 890.2C576.929 888.333 577.529 886.133 578.196 883.6C579.129 880 580.396 875.533 581.996 870.2C583.729 864.867 585.596 859.133 587.596 853C589.596 846.733 591.729 840.333 593.996 833.8C596.263 827.267 598.396 821.133 600.396 815.4C602.396 809.533 604.196 804.333 605.796 799.8C607.529 795.267 608.863 791.8 609.796 789.4ZM633.796 815.2C631.929 820.8 629.796 827.067 627.396 834C625.129 840.8 623.063 847.733 621.196 854.8H645.996C644.129 847.6 642.196 840.6 640.196 833.8C638.329 826.867 636.596 820.667 634.996 815.2H633.796ZM793.187 877.2C791.453 878.667 789.187 879.867 786.387 880.8C783.72 881.6 780.587 882 776.987 882C772.187 882 768.187 881.4 764.987 880.2C761.92 879 759.92 876.933 758.987 874C755.253 862.267 752.187 852.8 749.787 845.6C747.387 838.267 745.52 831.867 744.187 826.4H743.187C742.787 834.267 742.453 841.467 742.187 848C742.053 854.4 741.92 860.667 741.787 866.8C741.787 872.933 741.653 879.133 741.387 885.4C741.253 891.667 740.987 898.6 740.587 906.2C738.853 906.867 736.587 907.4 733.787 907.8C730.987 908.333 728.187 908.6 725.387 908.6C719.52 908.6 714.92 907.667 711.587 905.8C708.387 903.933 706.787 900.533 706.787 895.6L712.587 793.6C713.653 791.867 715.987 790 719.587 788C723.187 786 728.253 785 734.787 785C741.853 785 747.387 786.133 751.387 788.4C755.387 790.533 758.32 794.067 760.187 799C761.387 802.2 762.653 805.867 763.987 810C765.453 814.133 766.853 818.4 768.187 822.8C769.653 827.2 771.053 831.6 772.387 836C773.72 840.267 774.92 844.133 775.987 847.6H776.987C780.187 836.4 783.387 825.6 786.587 815.2C789.787 804.667 792.72 795.867 795.387 788.8C797.387 787.733 799.92 786.867 802.987 786.2C806.187 785.4 809.72 785 813.587 785C820.12 785 825.453 786 829.587 788C833.72 789.867 836.12 792.6 836.787 796.2C837.32 798.867 837.853 803 838.387 808.6C839.053 814.067 839.72 820.267 840.387 827.2C841.053 834.133 841.72 841.467 842.387 849.2C843.053 856.933 843.653 864.4 844.187 871.6C844.853 878.667 845.387 885.2 845.787 891.2C846.187 897.067 846.453 901.6 846.587 904.8C844.32 906.133 841.92 907.067 839.387 907.6C836.987 908.267 833.853 908.6 829.987 908.6C824.92 908.6 820.653 907.733 817.187 906C813.72 904.267 811.853 900.867 811.587 895.8C810.787 881.267 810.253 868.2 809.987 856.6C809.853 845 809.587 835.267 809.187 827.4H808.187C806.853 832.6 804.92 839.133 802.387 847C799.853 854.867 796.787 864.933 793.187 877.2ZM903.762 906.2C902.295 906.6 899.962 907 896.762 907.4C893.695 907.8 890.628 908 887.562 908C884.495 908 881.762 907.733 879.362 907.2C877.095 906.8 875.162 906 873.562 904.8C871.962 903.6 870.762 901.933 869.962 899.8C869.162 897.667 868.762 894.867 868.762 891.4V785.8C870.228 785.533 872.562 785.2 875.762 784.8C878.962 784.267 882.028 784 884.962 784C888.028 784 890.695 784.267 892.962 784.8C895.362 785.2 897.362 786 898.962 787.2C900.562 788.4 901.762 790.067 902.562 792.2C903.362 794.333 903.762 797.133 903.762 800.6V906.2Z" fill="#282828"/>
<path fill-rule="evenodd" clip-rule="evenodd" d="M406.01 446.077C419.8 449.292 421.887 449.654 436.393 449.654C439.742 449.654 442.798 449.369 445.707 448.962L454.614 447.51C454.846 448.499 457.572 453.373 458.191 454.301C456.811 456.909 454.716 459.212 452.885 461.499C449.89 465.238 437.069 474.98 434.538 475.155C432.625 475.289 424.569 469.373 422.705 467.985C415.295 462.455 412.475 458.154 407.951 450.578C407.157 449.251 406.221 447.725 406.01 446.077ZM683 315.405V317.631C682.833 319.181 682.373 320.764 681.999 322.131C678.219 335.905 674.833 347.815 670.268 361.507L661.243 386.438C659.086 392.383 653.463 404.407 650.83 410.335C649.695 412.887 648.32 414.998 647.022 417.607C639.921 431.832 632.235 443.111 622.29 455.424C621.786 456.051 621.452 456.283 620.915 456.909L602.226 475.033C600.094 476.697 598.043 478.312 595.65 479.891C592.513 481.958 588.644 484.839 585.189 486.589C578.585 489.937 573.767 492.936 566.085 495.72C545.833 503.052 542.326 503.577 521.545 507.646C520.068 507.935 518.453 508.134 516.598 508.423C510.055 509.432 509.696 509.497 502.604 503.174L494.645 496.472L484.794 504.846C483.529 505.794 482.52 506.494 481.344 507.471C479.024 509.387 476.807 510.864 474.207 512.488C471.659 514.079 469.377 515.682 466.789 517.224C462.073 520.028 438.375 532.927 434.245 532.927C432.523 532.927 421.366 527.743 419.356 526.734C416.833 525.472 414.73 524.418 412.203 523.161C410.893 522.502 409.916 522.07 408.626 521.375L402.01 517.631C392.48 511.874 386.116 507.918 377.307 500.517C376.587 499.911 376.448 499.919 375.72 499.243C369.682 493.628 364.221 489.002 359.033 482.337C349.544 470.125 341.219 457.251 335.917 442.546C335.026 440.068 334.049 437.472 333.146 434.957C327.392 418.949 321.696 391.577 320.243 374.589L317.37 335.64C317.167 331.84 317.065 327.873 317.016 323.852V303.121C317.016 300.488 319.942 298.112 322.737 298.112C324.528 298.112 327.156 299.341 328.507 299.849C341.316 304.655 355.285 307.446 368.994 309.757C377.441 311.181 385.921 312.093 394.901 312.793C414.327 314.306 424.357 314.197 443.538 314.197C443.571 312.752 444.018 311.328 444.254 309.908L446.785 297.436C449.056 286.145 451.457 276.562 454.187 265.519C454.919 262.569 456.075 256.006 458.114 254.435C462.927 250.736 466.996 255.379 472.127 258.801C478.186 262.837 481.396 264.278 486.934 267.586C490.242 269.555 494.189 271.248 497.392 272.851C507.231 277.779 525.798 285.327 536.418 288.867C578.068 302.746 629.688 314.856 674.748 310.949C677.226 310.734 678.146 310.205 680.367 311.466C682.06 312.431 682.788 313.839 683 315.405ZM513.591 496.83L498.49 483.7C494.983 480.147 489.962 476.168 486.987 472.319L481.575 466.301C480.636 465.104 479.948 464.311 479 463.155C459.31 439.022 449.613 410.828 449.613 378.174C449.613 374.707 449.479 366.3 449.874 363.419C450.037 362.223 449.951 361.141 449.959 359.932L451.55 342.582C454.984 317.497 458.96 295.512 465.267 271.232C465.592 269.958 465.946 269.352 466.052 268.095C467.187 268.359 467.501 268.697 468.412 269.307L485.339 279.187C486.979 280.143 488.379 280.855 490.242 281.791L505.729 289.176C521.895 297.021 556.087 308.06 574.207 312.195C582.512 314.087 590.788 316.068 599.313 317.464L618.868 320.43C625.598 321.362 635.234 321.639 640.206 322.318L655.119 322.778C660.185 322.778 663.965 322.416 669.064 322.416C668.982 325.968 656.751 363.619 654.509 369.34C650.676 379.146 647.266 389.225 642.729 398.661C641.549 401.123 640.735 403.398 639.514 405.815L632.455 419.482C628.833 425.529 624.675 432.967 620.455 438.574C612.964 448.531 609.798 452.246 601.249 460.474C600.236 461.446 599.614 461.751 598.564 462.789C592.993 468.331 578.097 477.653 570.313 481.002C560.51 485.221 550.216 489.356 539.526 491.679L522.376 495.252C519.405 495.809 516.345 496.192 513.591 496.83ZM329.17 311.694C330.648 311.82 333.069 312.732 334.485 313.171C336.169 313.692 337.911 314.087 339.758 314.689C361.645 321.842 402.539 325.635 425.671 325.635H441.394C441.394 327.238 440.922 329.61 440.747 331.063C440.495 333.093 440.246 334.997 440.031 336.78L438.383 353.719C438.082 355.725 438.277 357.735 437.972 359.741C437.655 361.816 437.996 363.916 437.764 365.967C435.848 383.081 440.523 417.68 448.429 434.408C449.687 437.061 450.5 437.016 441.65 438.114C413.318 441.638 398.824 431.787 395.288 431.787C391.996 431.787 388.721 435.177 389.4 438.717C390.682 445.431 394.132 452.173 397.074 457.878C401.033 465.556 409.497 474.048 416.589 478.748C419.629 480.762 430.452 488.257 434.245 488.257C440.275 488.257 456.746 475.24 462.211 469.043C463.066 468.071 464.469 466.02 465.336 465.381L473.97 475.692C474.532 476.396 474.552 476.542 475.252 477.271C477.132 479.216 478.52 480.888 480.44 482.804C481.677 484.041 485.335 487.195 485.71 488.611C484.867 488.839 474.166 497.986 471.912 499.471C466.04 503.353 463.887 505.278 456.885 509.103C455.53 509.847 454.321 510.478 452.983 511.279C451.55 512.13 450.46 512.577 449.052 513.424C445.182 515.739 440.523 517.472 436.511 519.478C434.395 520.536 434.143 520.288 432.108 519.344C429.289 518.038 426.273 516.797 423.523 515.418C413.269 510.27 401.408 504.155 392.122 497.136C389.734 495.333 387.573 493.62 385.282 491.83L381.97 489.063C380.713 487.842 379.785 487.248 378.576 486.019C376.428 483.85 374.438 481.974 372.318 479.773C371.61 479.037 371.606 478.902 371.041 478.19L366.614 472.97C361.047 466.166 356.148 458.207 352.16 450.248C341.784 429.533 335.359 400.028 332.804 376.68C332.108 370.276 331.482 358.602 330.745 353.719C330.46 351.798 330.684 349.931 330.391 347.998L329.17 311.694Z" fill="white"/>
<path fill-rule="evenodd" clip-rule="evenodd" d="M505.371 417.489C514.807 422.481 518.42 425.102 529.671 428.21C535.571 429.842 545.667 432.186 552.181 432.149C553.613 432.141 554.993 432.08 556.397 432.251C558.325 432.491 558.138 432.141 560.409 432.141C560.136 433.158 558.317 435.132 557.467 435.99C554.985 438.501 552.95 440.523 550.151 442.615C548.678 443.713 547.465 444.482 545.907 445.516C542.509 447.762 528.508 453.361 525.724 453.162C524.495 453.076 522.966 450.985 522.078 450.102C515.141 443.176 508.569 433.223 506.527 423.474C506.262 422.213 505.693 418.213 505.371 417.489ZM523.238 466.097C524.483 466.097 526.656 465.474 528.027 465.161C538.782 462.728 548.295 459.139 557.41 453.084C560.148 451.27 564.762 447.555 566.931 445.093C567.562 444.377 567.558 444.206 568.185 443.494C570.984 440.348 578.638 431.401 578.638 427.136C578.638 423.612 575.895 421.016 571.806 421.346C554.688 422.746 541.797 423.047 525.586 416.569C524.15 415.999 523.332 415.531 522.115 415.035C517.485 413.151 510.893 409.355 506.852 406.352C504.862 404.879 499.691 401.046 497.506 401.046C489.836 401.046 491.675 409.562 491.781 413.92C491.817 415.69 492.253 417.977 492.48 419.653C494.515 434.546 502.152 447.347 512.427 457.609C513.59 458.765 514.478 459.66 515.637 460.828C517.09 462.284 521.094 466.097 523.238 466.097Z" fill="white"/>
<path fill-rule="evenodd" clip-rule="evenodd" d="M586.141 355.298C590.239 355.208 591.683 352.799 600.798 352.799C603.32 352.799 609.339 358.504 610.592 360.152C611.202 360.962 611.239 360.962 612.04 361.572C613.094 362.374 612.936 361.771 613.306 363.159C605.86 363.33 600.94 370.32 592.123 361.828C591.008 360.758 590.182 359.875 589.091 358.781C587.203 356.897 587.142 357.194 586.141 355.298ZM566.846 352.083C566.846 355.831 572.408 360.51 574.76 363.468C576.335 365.454 580.571 369.258 582.723 370.87C586.515 373.714 591.276 376.282 595.939 377.311C603.841 379.065 611.369 377.934 618.807 375.456C622.25 374.3 629.509 372.579 631.397 369.816C632.821 367.729 632.825 365.263 631.486 363.208L627.511 358.248C621.472 351.766 616.069 345.565 607.276 342.387C595.638 338.171 581.714 341.732 570.557 346.5C568.648 347.314 566.846 349.479 566.846 352.083Z" fill="white"/>
<path fill-rule="evenodd" clip-rule="evenodd" d="M372.77 364.95C374.105 364.636 377.852 362.305 379.317 361.483C381.278 360.388 384.061 358.643 386.743 358.565C391.044 358.451 397.957 364.237 401.005 364.95V365.666C398.531 366.243 391.671 371.781 387.02 371.871C383.862 371.932 379.093 369.067 376.326 367.468C375.358 366.907 373.832 365.91 372.77 365.666V364.95ZM353.113 364.95C353.113 366.964 353.715 368.254 354.797 369.348C356.734 371.301 363.607 375.708 365.958 377.124C379.398 385.173 393.88 386.182 407.373 377.393C411.104 374.963 420.666 369.995 420.666 365.666C420.666 361.471 417.729 360.181 415.153 358.309L407.202 353.04C391.841 344.511 381.966 345.231 367.285 352.673C364.274 354.203 361.946 356.042 359.257 357.869C356.608 359.664 353.113 361.792 353.113 364.95Z" fill="white"/>
<path fill-rule="evenodd" clip-rule="evenodd" d="M494.287 330.993C496.623 329.874 505.379 328.137 508.228 328.137C512.618 328.137 520.406 336.405 521.81 338.501C518.205 338.798 514.266 341.361 507.869 341.361C504.708 341.361 502.234 338.664 500.309 337.121C499.109 336.161 495.056 332.145 494.287 330.993ZM475.35 327.421C475.35 330.383 476.449 330.993 477.848 332.784C483.289 339.734 489.775 346.431 497.742 350.419C508.105 355.611 519.104 353.617 529.541 350.163C531.995 349.349 537.618 347.681 539.254 345.935C543.815 341.072 537.5 335.84 534.733 332.373L527.226 324.866C518.522 317.798 513.822 315.987 502.153 315.987C496.431 315.987 490.873 317.79 486.471 319.242C481.213 320.988 475.35 322.265 475.35 327.421Z" fill="white"/>
</svg>
