<svg width="3049" height="1000" viewBox="0 0 3049 1000" fill="none" xmlns="http://www.w3.org/2000/svg">
<path d="M487 201.949C496.591 196.411 508.409 196.411 518 201.949L752.437 337.301C762.028 342.839 767.937 353.073 767.937 364.148V634.852C767.937 645.927 762.028 656.161 752.437 661.699L518 797.051C508.409 802.589 496.591 802.589 487 797.051L252.563 661.699C242.972 656.161 237.063 645.927 237.063 634.852V364.148C237.063 353.073 242.972 342.839 252.563 337.301L487 201.949Z" fill="#282828"/>
<path d="M1161.68 434.9C1164.98 433.4 1170.08 431.75 1176.98 429.95C1184.18 427.85 1191.38 426.8 1198.58 426.8C1211.18 426.8 1221.68 428.75 1230.08 432.65C1238.48 436.25 1243.58 441.65 1245.38 448.85C1248.68 461.15 1251.68 472.7 1254.38 483.5C1257.38 494 1260.23 504.2 1262.93 514.1C1265.63 523.7 1268.18 533.3 1270.58 542.9C1273.28 552.5 1275.83 562.55 1278.23 573.05H1280.48C1283.18 554.75 1285.58 537.35 1287.68 520.85C1289.78 504.05 1291.73 487.7 1293.53 471.8C1295.33 455.6 1297.13 439.7 1298.93 424.1C1300.73 408.2 1302.53 392.15 1304.33 375.95C1315.43 369.65 1327.28 366.5 1339.88 366.5C1350.98 366.5 1360.58 368.9 1368.68 373.7C1376.78 378.5 1380.83 386.6 1380.83 398C1380.83 404.6 1380.08 414.05 1378.58 426.35C1377.38 438.35 1375.58 451.85 1373.18 466.85C1371.08 481.85 1368.53 497.6 1365.53 514.1C1362.53 530.6 1359.38 546.35 1356.08 561.35C1352.78 576.35 1349.33 590 1345.73 602.3C1342.43 614.3 1339.28 623.6 1336.28 630.2C1331.78 634.4 1324.43 637.85 1314.23 640.55C1304.03 643.25 1293.53 644.6 1282.73 644.6C1268.63 644.6 1256.63 642.8 1246.73 639.2C1237.13 635.3 1231.28 629.9 1229.18 623C1225.28 611 1221.08 596.75 1216.58 580.25C1212.08 563.75 1207.28 545.6 1202.18 525.8C1197.98 545.3 1193.63 564.35 1189.13 582.95C1184.63 601.55 1180.58 617.3 1176.98 630.2C1172.48 634.4 1165.73 637.85 1156.73 640.55C1147.73 643.25 1137.83 644.6 1127.03 644.6C1113.53 644.6 1101.23 642.8 1090.13 639.2C1079.33 635.3 1072.28 629.9 1068.98 623C1066.28 617.6 1063.28 609.65 1059.98 599.15C1056.98 588.35 1053.83 576.2 1050.53 562.7C1047.23 548.9 1043.78 534.05 1040.18 518.15C1036.88 502.25 1033.73 486.35 1030.73 470.45C1028.03 454.55 1025.48 439.1 1023.08 424.1C1020.68 408.8 1018.88 394.85 1017.68 382.25C1021.88 378.35 1027.73 374.75 1035.23 371.45C1042.73 368.15 1050.83 366.5 1059.53 366.5C1070.93 366.5 1080.23 369.05 1087.43 374.15C1094.93 378.95 1099.58 387.2 1101.38 398.9C1106.18 429.5 1110.08 455 1113.08 475.4C1116.38 495.8 1118.93 512.6 1120.73 525.8C1122.83 538.7 1124.33 548.75 1125.23 555.95C1126.13 563.15 1127.03 568.85 1127.93 573.05H1130.18C1132.88 561.05 1135.43 549.95 1137.83 539.75C1140.23 529.55 1142.63 519.35 1145.03 509.15C1147.73 498.65 1150.43 487.55 1153.13 475.85C1155.83 463.85 1158.68 450.2 1161.68 434.9ZM1668.05 639.2C1664.75 640.1 1659.5 641 1652.3 641.9C1645.4 642.8 1638.5 643.25 1631.6 643.25C1624.7 643.25 1618.55 642.65 1613.15 641.45C1608.05 640.55 1603.7 638.75 1600.1 636.05C1596.5 633.35 1593.8 629.6 1592 624.8C1590.2 620 1589.3 613.7 1589.3 605.9V535.7H1502.9V639.2C1499.6 640.1 1494.35 641 1487.15 641.9C1480.25 642.8 1473.35 643.25 1466.45 643.25C1459.55 643.25 1453.4 642.65 1448 641.45C1442.9 640.55 1438.55 638.75 1434.95 636.05C1431.35 633.35 1428.65 629.6 1426.85 624.8C1425.05 620 1424.15 613.7 1424.15 605.9V368.3C1427.45 367.7 1432.7 366.95 1439.9 366.05C1447.1 364.85 1454 364.25 1460.6 364.25C1467.5 364.25 1473.5 364.85 1478.6 366.05C1484 366.95 1488.5 368.75 1492.1 371.45C1495.7 374.15 1498.4 377.9 1500.2 382.7C1502 387.5 1502.9 393.8 1502.9 401.6V473.6H1589.3V368.3C1592.6 367.7 1597.85 366.95 1605.05 366.05C1612.25 364.85 1619.15 364.25 1625.75 364.25C1632.65 364.25 1638.65 364.85 1643.75 366.05C1649.15 366.95 1653.65 368.75 1657.25 371.45C1660.85 374.15 1663.55 377.9 1665.35 382.7C1667.15 387.5 1668.05 393.8 1668.05 401.6V639.2ZM1713 504.2C1713 480.8 1716.6 460.1 1723.8 442.1C1731.3 424.1 1741.35 409.1 1753.95 397.1C1766.85 384.8 1781.85 375.5 1798.95 369.2C1816.35 362.9 1835.1 359.75 1855.2 359.75C1875.3 359.75 1893.9 362.9 1911 369.2C1928.4 375.5 1943.55 384.8 1956.45 397.1C1969.35 409.1 1979.4 424.1 1986.6 442.1C1994.1 460.1 1997.85 480.8 1997.85 504.2C1997.85 527.6 1994.25 548.45 1987.05 566.75C1979.85 584.75 1969.8 599.9 1956.9 612.2C1944.3 624.2 1929.3 633.35 1911.9 639.65C1894.5 645.95 1875.6 649.1 1855.2 649.1C1834.8 649.1 1815.9 645.95 1798.5 639.65C1781.1 633.05 1766.1 623.6 1753.5 611.3C1740.9 599 1731 583.85 1723.8 565.85C1716.6 547.85 1713 527.3 1713 504.2ZM1794 504.2C1794 531.5 1799.55 551.9 1810.65 565.4C1821.75 578.9 1836.6 585.65 1855.2 585.65C1874.1 585.65 1889.1 578.9 1900.2 565.4C1911.3 551.9 1916.85 531.5 1916.85 504.2C1916.85 477.2 1911.3 456.95 1900.2 443.45C1889.4 429.95 1874.55 423.2 1855.65 423.2C1837.05 423.2 1822.05 429.95 1810.65 443.45C1799.55 456.65 1794 476.9 1794 504.2ZM2191.04 376.4C2196.14 373.4 2203.79 370.55 2213.99 367.85C2224.49 365.15 2234.99 363.8 2245.49 363.8C2260.49 363.8 2273.69 366.05 2285.09 370.55C2296.79 374.75 2304.29 381.5 2307.59 390.8C2312.99 406.4 2318.84 424.55 2325.14 445.25C2331.44 465.95 2337.74 487.4 2344.04 509.6C2350.34 531.5 2356.49 553.25 2362.49 574.85C2368.49 596.15 2373.74 615.05 2378.24 631.55C2374.64 635.75 2369.24 639.05 2362.04 641.45C2354.84 644.15 2346.29 645.5 2336.39 645.5C2329.19 645.5 2323.04 644.9 2317.94 643.7C2313.14 642.5 2309.09 640.7 2305.79 638.3C2302.79 635.9 2300.24 632.75 2298.14 628.85C2296.34 624.95 2294.69 620.45 2293.19 615.35L2285.09 584.3H2203.64C2201.24 593.3 2198.84 602.6 2196.44 612.2C2194.04 621.8 2191.64 631.1 2189.24 640.1C2185.04 641.6 2180.54 642.8 2175.74 643.7C2171.24 644.9 2165.69 645.5 2159.09 645.5C2143.79 645.5 2132.39 642.95 2124.89 637.85C2117.69 632.45 2114.09 625.1 2114.09 615.8C2114.09 611.6 2114.69 607.4 2115.89 603.2C2117.09 599 2118.44 594.05 2119.94 588.35C2122.04 580.25 2124.89 570.2 2128.49 558.2C2132.39 546.2 2136.59 533.3 2141.09 519.5C2145.59 505.4 2150.39 491 2155.49 476.3C2160.59 461.6 2165.39 447.8 2169.89 434.9C2174.39 421.7 2178.44 410 2182.04 399.8C2185.94 389.6 2188.94 381.8 2191.04 376.4ZM2245.04 434.45C2240.84 447.05 2236.04 461.15 2230.64 476.75C2225.54 492.05 2220.89 507.65 2216.69 523.55H2272.49C2268.29 507.35 2263.94 491.6 2259.44 476.3C2255.24 460.7 2251.34 446.75 2247.74 434.45H2245.04ZM2603.67 573.95C2599.77 577.25 2594.67 579.95 2588.37 582.05C2582.37 583.85 2575.32 584.75 2567.22 584.75C2556.42 584.75 2547.42 583.4 2540.22 580.7C2533.32 578 2528.82 573.35 2526.72 566.75C2518.32 540.35 2511.42 519.05 2506.02 502.85C2500.62 486.35 2496.42 471.95 2493.42 459.65H2491.17C2490.27 477.35 2489.52 493.55 2488.92 508.25C2488.62 522.65 2488.32 536.75 2488.02 550.55C2488.02 564.35 2487.72 578.3 2487.12 592.4C2486.82 606.5 2486.22 622.1 2485.32 639.2C2481.42 640.7 2476.32 641.9 2470.02 642.8C2463.72 644 2457.42 644.6 2451.12 644.6C2437.92 644.6 2427.57 642.5 2420.07 638.3C2412.87 634.1 2409.27 626.45 2409.27 615.35L2422.32 385.85C2424.72 381.95 2429.97 377.75 2438.07 373.25C2446.17 368.75 2457.57 366.5 2472.27 366.5C2488.17 366.5 2500.62 369.05 2509.62 374.15C2518.62 378.95 2525.22 386.9 2529.42 398C2532.12 405.2 2534.97 413.45 2537.97 422.75C2541.27 432.05 2544.42 441.65 2547.42 451.55C2550.72 461.45 2553.87 471.35 2556.87 481.25C2559.87 490.85 2562.57 499.55 2564.97 507.35H2567.22C2574.42 482.15 2581.62 457.85 2588.82 434.45C2596.02 410.75 2602.62 390.95 2608.62 375.05C2613.12 372.65 2618.82 370.7 2625.72 369.2C2632.92 367.4 2640.87 366.5 2649.57 366.5C2664.27 366.5 2676.27 368.75 2685.57 373.25C2694.87 377.45 2700.27 383.6 2701.77 391.7C2702.97 397.7 2704.17 407 2705.37 419.6C2706.87 431.9 2708.37 445.85 2709.87 461.45C2711.37 477.05 2712.87 493.55 2714.37 510.95C2715.87 528.35 2717.22 545.15 2718.42 561.35C2719.92 577.25 2721.12 591.95 2722.02 605.45C2722.92 618.65 2723.52 628.85 2723.82 636.05C2718.72 639.05 2713.32 641.15 2707.62 642.35C2702.22 643.85 2695.17 644.6 2686.47 644.6C2675.07 644.6 2665.47 642.65 2657.67 638.75C2649.87 634.85 2645.67 627.2 2645.07 615.8C2643.27 583.1 2642.07 553.7 2641.47 527.6C2641.17 501.5 2640.57 479.6 2639.67 461.9H2637.42C2634.42 473.6 2630.07 488.3 2624.37 506C2618.67 523.7 2611.77 546.35 2603.67 573.95ZM2852.46 639.2C2849.16 640.1 2843.91 641 2836.71 641.9C2829.81 642.8 2822.91 643.25 2816.01 643.25C2809.11 643.25 2802.96 642.65 2797.56 641.45C2792.46 640.55 2788.11 638.75 2784.51 636.05C2780.91 633.35 2778.21 629.6 2776.41 624.8C2774.61 620 2773.71 613.7 2773.71 605.9V368.3C2777.01 367.7 2782.26 366.95 2789.46 366.05C2796.66 364.85 2803.56 364.25 2810.16 364.25C2817.06 364.25 2823.06 364.85 2828.16 366.05C2833.56 366.95 2838.06 368.75 2841.66 371.45C2845.26 374.15 2847.96 377.9 2849.76 382.7C2851.56 387.5 2852.46 393.8 2852.46 401.6V639.2Z" fill="#282828"/>
<path fill-rule="evenodd" clip-rule="evenodd" d="M408.01 553.077C421.8 556.292 423.887 556.654 438.393 556.654C441.742 556.654 444.798 556.369 447.707 555.962L456.614 554.51C456.846 555.499 459.572 560.373 460.191 561.301C458.811 563.909 456.716 566.212 454.885 568.499C451.89 572.238 439.069 581.98 436.538 582.155C434.625 582.289 426.569 576.373 424.705 574.985C417.295 569.455 414.475 565.154 409.951 557.578C409.157 556.251 408.221 554.725 408.01 553.077ZM685 422.405V424.631C684.833 426.181 684.373 427.764 683.999 429.131C680.219 442.905 676.833 454.815 672.268 468.507L663.243 493.438C661.086 499.383 655.463 511.407 652.83 517.335C651.695 519.887 650.32 521.998 649.022 524.607C641.921 538.832 634.235 550.111 624.29 562.424C623.786 563.051 623.452 563.283 622.915 563.909L604.226 582.033C602.094 583.697 600.043 585.312 597.65 586.891C594.513 588.958 590.644 591.839 587.189 593.589C580.585 596.937 575.767 599.936 568.085 602.72C547.833 610.052 544.326 610.577 523.545 614.646C522.068 614.935 520.453 615.134 518.598 615.423C512.055 616.432 511.696 616.497 504.604 610.174L496.645 603.472L486.794 611.846C485.529 612.794 484.52 613.494 483.344 614.471C481.024 616.387 478.807 617.864 476.207 619.488C473.659 621.079 471.377 622.682 468.789 624.224C464.073 627.028 440.375 639.927 436.245 639.927C434.523 639.927 423.366 634.743 421.356 633.734C418.833 632.472 416.73 631.418 414.203 630.161C412.893 629.502 411.916 629.07 410.626 628.375L404.01 624.631C394.48 618.874 388.116 614.918 379.307 607.517C378.587 606.911 378.448 606.919 377.72 606.243C371.682 600.628 366.221 596.002 361.033 589.337C351.544 577.125 343.219 564.251 337.917 549.546C337.026 547.068 336.049 544.472 335.146 541.957C329.392 525.949 323.696 498.577 322.243 481.589L319.37 442.64C319.167 438.84 319.065 434.873 319.016 430.852V410.121C319.016 407.488 321.942 405.112 324.737 405.112C326.528 405.112 329.156 406.341 330.507 406.849C343.316 411.655 357.285 414.446 370.994 416.757C379.441 418.181 387.921 419.093 396.901 419.793C416.327 421.306 426.357 421.197 445.538 421.197C445.571 419.752 446.018 418.328 446.254 416.908L448.785 404.436C451.056 393.145 453.457 383.562 456.187 372.519C456.919 369.569 458.075 363.006 460.114 361.435C464.927 357.736 468.996 362.379 474.127 365.801C480.186 369.837 483.396 371.278 488.934 374.586C492.242 376.555 496.189 378.248 499.392 379.851C509.231 384.779 527.798 392.327 538.418 395.867C580.068 409.746 631.688 421.856 676.748 417.949C679.226 417.734 680.146 417.205 682.367 418.466C684.06 419.431 684.788 420.839 685 422.405ZM515.591 603.83L500.49 590.7C496.983 587.147 491.962 583.168 488.987 579.319L483.575 573.301C482.636 572.104 481.948 571.311 481 570.155C461.31 546.022 451.613 517.828 451.613 485.174C451.613 481.707 451.479 473.3 451.874 470.419C452.037 469.223 451.951 468.141 451.959 466.932L453.55 449.582C456.984 424.497 460.96 402.512 467.267 378.232C467.592 376.958 467.946 376.352 468.052 375.095C469.187 375.359 469.501 375.697 470.412 376.307L487.339 386.187C488.979 387.143 490.379 387.855 492.242 388.791L507.729 396.176C523.895 404.021 558.087 415.06 576.207 419.195C584.512 421.087 592.788 423.068 601.313 424.464L620.868 427.43C627.598 428.362 637.234 428.639 642.206 429.318L657.119 429.778C662.185 429.778 665.965 429.416 671.064 429.416C670.982 432.968 658.751 470.619 656.509 476.34C652.676 486.146 649.266 496.225 644.729 505.661C643.549 508.123 642.735 510.398 641.514 512.815L634.455 526.482C630.833 532.529 626.675 539.967 622.455 545.574C614.964 555.531 611.798 559.246 603.249 567.474C602.236 568.446 601.614 568.751 600.564 569.789C594.993 575.331 580.097 584.653 572.313 588.002C562.51 592.221 552.216 596.356 541.526 598.679L524.376 602.252C521.405 602.809 518.345 603.192 515.591 603.83ZM331.17 418.694C332.648 418.82 335.069 419.732 336.485 420.171C338.169 420.692 339.911 421.087 341.758 421.689C363.645 428.842 404.539 432.635 427.671 432.635H443.394C443.394 434.238 442.922 436.61 442.747 438.063C442.495 440.093 442.246 441.997 442.031 443.78L440.383 460.719C440.082 462.725 440.277 464.735 439.972 466.741C439.655 468.816 439.996 470.916 439.764 472.967C437.848 490.081 442.523 524.68 450.429 541.408C451.687 544.061 452.5 544.016 443.65 545.114C415.318 548.638 400.824 538.787 397.288 538.787C393.996 538.787 390.721 542.177 391.4 545.717C392.682 552.431 396.132 559.173 399.074 564.878C403.033 572.556 411.497 581.048 418.589 585.748C421.629 587.762 432.452 595.257 436.245 595.257C442.275 595.257 458.746 582.24 464.211 576.043C465.066 575.071 466.469 573.02 467.336 572.381L475.97 582.692C476.532 583.396 476.552 583.542 477.252 584.271C479.132 586.216 480.52 587.888 482.44 589.804C483.677 591.041 487.335 594.195 487.71 595.611C486.867 595.839 476.166 604.986 473.912 606.471C468.04 610.353 465.887 612.278 458.885 616.103C457.53 616.847 456.321 617.478 454.983 618.279C453.55 619.13 452.46 619.577 451.052 620.424C447.182 622.739 442.523 624.472 438.511 626.478C436.395 627.536 436.143 627.288 434.108 626.344C431.289 625.038 428.273 623.797 425.523 622.418C415.269 617.27 403.408 611.155 394.122 604.136C391.734 602.333 389.573 600.62 387.282 598.83L383.97 596.063C382.713 594.842 381.785 594.248 380.576 593.019C378.428 590.85 376.438 588.974 374.318 586.773C373.61 586.037 373.606 585.902 373.041 585.19L368.614 579.97C363.047 573.166 358.148 565.207 354.16 557.248C343.784 536.533 337.359 507.028 334.804 483.68C334.108 477.276 333.482 465.602 332.745 460.719C332.46 458.798 332.684 456.931 332.391 454.998L331.17 418.694Z" fill="white"/>
<path fill-rule="evenodd" clip-rule="evenodd" d="M507.371 524.489C516.807 529.481 520.42 532.102 531.671 535.21C537.571 536.842 547.667 539.186 554.181 539.149C555.613 539.141 556.993 539.08 558.397 539.251C560.325 539.491 560.138 539.141 562.409 539.141C562.136 540.158 560.317 542.132 559.467 542.99C556.985 545.501 554.95 547.523 552.151 549.615C550.678 550.713 549.465 551.482 547.907 552.516C544.509 554.762 530.508 560.361 527.724 560.162C526.495 560.076 524.966 557.985 524.078 557.102C517.141 550.176 510.569 540.223 508.527 530.474C508.262 529.213 507.693 525.213 507.371 524.489ZM525.238 573.097C526.483 573.097 528.656 572.474 530.027 572.161C540.782 569.728 550.295 566.139 559.41 560.084C562.148 558.27 566.762 554.555 568.931 552.093C569.562 551.377 569.558 551.206 570.185 550.494C572.984 547.348 580.638 538.401 580.638 534.136C580.638 530.612 577.895 528.016 573.806 528.346C556.688 529.746 543.797 530.047 527.586 523.569C526.15 522.999 525.332 522.531 524.115 522.035C519.485 520.151 512.893 516.355 508.852 513.352C506.862 511.879 501.691 508.046 499.506 508.046C491.836 508.046 493.675 516.562 493.781 520.92C493.817 522.69 494.253 524.977 494.48 526.653C496.515 541.546 504.152 554.347 514.427 564.609C515.59 565.765 516.478 566.66 517.637 567.828C519.09 569.284 523.094 573.097 525.238 573.097Z" fill="white"/>
<path fill-rule="evenodd" clip-rule="evenodd" d="M588.141 462.298C592.239 462.208 593.683 459.799 602.798 459.799C605.32 459.799 611.339 465.504 612.592 467.152C613.202 467.962 613.239 467.962 614.04 468.572C615.094 469.374 614.936 468.771 615.306 470.159C607.86 470.33 602.94 477.32 594.123 468.828C593.008 467.758 592.182 466.875 591.091 465.781C589.203 463.897 589.142 464.194 588.141 462.298ZM568.846 459.083C568.846 462.831 574.408 467.51 576.76 470.468C578.335 472.454 582.571 476.258 584.723 477.87C588.515 480.714 593.276 483.282 597.939 484.311C605.841 486.065 613.369 484.934 620.807 482.456C624.25 481.3 631.509 479.579 633.397 476.816C634.821 474.729 634.825 472.263 633.486 470.208L629.511 465.248C623.472 458.766 618.069 452.565 609.276 449.387C597.638 445.171 583.714 448.732 572.557 453.5C570.648 454.314 568.846 456.479 568.846 459.083Z" fill="white"/>
<path fill-rule="evenodd" clip-rule="evenodd" d="M374.77 471.95C376.105 471.636 379.852 469.305 381.317 468.483C383.278 467.388 386.061 465.643 388.743 465.565C393.044 465.451 399.957 471.237 403.005 471.95V472.666C400.531 473.243 393.671 478.781 389.02 478.871C385.862 478.932 381.093 476.067 378.326 474.468C377.358 473.907 375.832 472.91 374.77 472.666V471.95ZM355.113 471.95C355.113 473.964 355.715 475.254 356.797 476.348C358.734 478.301 365.607 482.708 367.958 484.124C381.398 492.173 395.88 493.182 409.373 484.393C413.104 481.963 422.666 476.995 422.666 472.666C422.666 468.471 419.729 467.181 417.153 465.309L409.202 460.04C393.841 451.511 383.966 452.231 369.285 459.673C366.274 461.203 363.946 463.042 361.257 464.869C358.608 466.664 355.113 468.792 355.113 471.95Z" fill="white"/>
<path fill-rule="evenodd" clip-rule="evenodd" d="M496.287 437.993C498.623 436.874 507.379 435.137 510.228 435.137C514.618 435.137 522.406 443.405 523.81 445.501C520.205 445.798 516.266 448.361 509.869 448.361C506.708 448.361 504.234 445.664 502.309 444.121C501.109 443.161 497.056 439.145 496.287 437.993ZM477.35 434.421C477.35 437.383 478.448 437.993 479.848 439.784C485.289 446.734 491.775 453.431 499.742 457.419C510.105 462.611 521.104 460.617 531.541 457.163C533.995 456.349 539.618 454.681 541.254 452.935C545.815 448.072 539.5 442.84 536.733 439.373L529.226 431.866C520.522 424.798 515.822 422.987 504.152 422.987C498.431 422.987 492.873 424.79 488.47 426.242C483.213 427.988 477.35 429.265 477.35 434.421Z" fill="white"/>
</svg>
