<svg width="128" height="128" viewBox="0 0 128 128" fill="none" xmlns="http://www.w3.org/2000/svg">
<path fill-rule="evenodd" clip-rule="evenodd" d="M30 0C13.4315 0 0 13.4315 0 30V128H98C114.569 128 128 114.569 128 98V0H30ZM63.688 82.984L62.632 81.64L46.696 82.216H37.48L37.288 76.84L37.384 73.192H46.024L57.16 73.48L58.312 59.464L57.256 58.12L47.272 58.408H37.768L37.96 49.672H47.848L63.112 50.248L64.36 36.232L63.304 34.888H18.76L19.72 78.76L18.76 97H62.536L63.688 82.984ZM112.266 37.096C106.314 34.856 100.298 33.736 94.2175 33.736C89.2255 33.736 84.7775 34.664 80.8735 36.52C76.9695 38.376 73.9295 40.936 71.7535 44.2C69.5775 47.4 68.4895 51.016 68.4895 55.048C68.4895 58.568 69.3215 61.544 70.9855 63.976C72.6495 66.344 74.6015 68.232 76.8415 69.64C79.1455 70.984 82.0575 72.424 85.5775 73.96C88.6495 75.304 90.8575 76.456 92.2015 77.416C93.6095 78.312 94.3135 79.432 94.3135 80.776C94.3135 81.672 93.8975 82.44 93.0655 83.08C92.2975 83.656 91.0175 83.944 89.2255 83.944C86.9855 83.944 84.1695 83.304 80.7775 82.024C77.4495 80.68 74.3135 78.888 71.3695 76.648L69.4495 77.8L66.6655 94.504C73.8335 96.936 80.6815 98.152 87.2095 98.152C92.4575 98.152 97.0655 97.224 101.034 95.368C105.001 93.512 108.042 91.016 110.154 87.88C112.329 84.68 113.417 81.128 113.417 77.224C113.417 73.704 112.553 70.76 110.826 68.392C109.098 65.96 107.081 64.072 104.777 62.728C102.473 61.32 99.5295 59.816 95.9455 58.216C92.8735 56.808 90.6655 55.688 89.3215 54.856C88.0415 53.96 87.4015 52.904 87.4015 51.688C87.4015 50.728 87.8175 49.96 88.6495 49.384C89.5455 48.808 90.7295 48.52 92.2015 48.52C93.8015 48.52 95.9135 49 98.5375 49.96C101.161 50.92 103.818 52.232 106.506 53.896L109.193 52.744L112.266 37.096Z" fill="#141414"/>
</svg>
